PathFileType	4	(X/Y/Z)	OpenSim_Sub07_CSStiffKnee_Magnet.trc
DataRate	CameraRate	NumFrames	NumMarkers	Units	OrigDataRate	OrigDataStartFrame	OrigNumFrames
100	100	20	8	m	100	3368	6734
Frame#	Time	torso_imu_offset_imu	pelvis_imu_offset_imu	tibia_r_imu_offset_imu	femur_r_imu_offset_imu	tibia_l_imu_offset_imu	femur_l_imu_offset_imu	toes_r_imu_offset_imu	toes_l_imu_offset_imu
				X1	Y1	Z1	X2	Y2	Z2	X3	Y3	Z3	X4	Y4	Z4	X5	Y5	Z5	X6	Y6	Z6	X7	Y7	Z7	X8		Y8	Z8	

3368	33.67000000	0.92873401	0.24008909	0.04772397	-0.68893599	0.21516482	-0.66269537	-0.36815778	-0.72417563	0.20259747	-0.87014415	-0.03523231	-0.14946961	-0.61563612	0.54292624	0.20794590	-0.54757236	-0.11172360	0.36080240	-0.79850820	-0.37922055	-0.11272104	-0.75050701	-0.26522216	-0.32563835
3369	33.68000000	0.92729394	0.24005549	0.04943987	-0.68943924	0.21728355	-0.66528012	-0.39957447	-0.70632008	0.20500145	-0.87206634	-0.02404388	-0.15068109	-0.61806366	0.54936444	0.21039746	-0.54864948	-0.10676259	0.36172019	-0.79432146	-0.36728252	-0.14873000	-0.75163726	-0.27082885	-0.32274393
3370	33.69000000	0.92569347	0.23956965	0.04980379	-0.68425066	0.21900455	-0.67170343	-0.42748522	-0.68634380	0.19759362	-0.87164989	-0.02558035	-0.14825720	-0.61129000	0.55821290	0.20852116	-0.54505829	-0.10649576	0.36836835	-0.78703427	-0.35675390	-0.18170778	-0.75318078	-0.26823211	-0.32129180
3371	33.70000000	0.92784795	0.23689775	0.04655532	-0.68045905	0.21896097	-0.67577130	-0.45691422	-0.67404404	0.18861970	-0.86746984	-0.02804666	-0.14861936	-0.60788470	0.55684909	0.21225085	-0.54344288	-0.10573076	0.36717552	-0.76940575	-0.34900315	-0.21589351	-0.75110984	-0.27417919	-0.31891540
3372	33.71000000	0.92175797	0.23576139	0.04995190	-0.67971682	0.21903188	-0.67442710	-0.48467872	-0.66185429	0.17657014	-0.86368461	-0.02608070	-0.14791771	-0.60757111	0.56205090	0.21684922	-0.53821753	-0.10568812	0.37409312	-0.75234948	-0.33611187	-0.24662619	-0.74189959	-0.27017178	-0.32256825
3373	33.72000000	0.92724555	0.23915378	0.05532270	-0.68214073	0.21886892	-0.67476549	-0.51030850	-0.64563830	0.15848962	-0.86901423	-0.02501006	-0.14569342	-0.60494348	0.56874727	0.21145359	-0.53721407	-0.09988219	0.37569276	-0.73062450	-0.32554086	-0.27217338	-0.74251409	-0.27026140	-0.31971317
3374	33.73000000	0.92914857	0.24298048	0.06001805	-0.67976683	0.21894674	-0.67221858	-0.53274889	-0.62914353	0.14440451	-0.86939653	-0.02188840	-0.14813748	-0.60718046	0.56875406	0.21515870	-0.53036880	-0.10050085	0.38180730	-0.70749636	-0.32051646	-0.29590134	-0.74039888	-0.27455140	-0.32126435
3375	33.74000000	0.92083365	0.24467736	0.05990741	-0.67466458	0.21844413	-0.67602771	-0.55696733	-0.61008185	0.12386284	-0.86723523	-0.02488968	-0.14975152	-0.59470363	0.57440431	0.20943116	-0.53139060	-0.09686291	0.38151066	-0.69058978	-0.32064109	-0.31054086	-0.73948958	-0.27148253	-0.32163373
3376	33.75000000	0.92331141	0.24231479	0.06248919	-0.67883810	0.22132186	-0.67358749	-0.57666639	-0.59734815	0.10597089	-0.86852485	-0.02608787	-0.14687275	-0.59291387	0.58136720	0.21202237	-0.52926699	-0.09383528	0.37582138	-0.67808611	-0.31501555	-0.32822449	-0.73572012	-0.27116763	-0.31720699
3377	33.76000000	0.92374266	0.23753644	0.06520782	-0.67711701	0.22287162	-0.67384704	-0.59597130	-0.58013728	0.09319395	-0.86874188	-0.02685532	-0.14676478	-0.58720382	0.59131266	0.21189137	-0.52096698	-0.09314881	0.38225083	-0.65733042	-0.31436645	-0.34563066	-0.73599571	-0.27815062	-0.31985445
3378	33.77000000	0.92370747	0.24118301	0.06516949	-0.67006010	0.21404124	-0.67446531	-0.60924401	-0.56293285	0.06955237	-0.86482373	-0.03217507	-0.14251922	-0.58350767	0.59625831	0.20410826	-0.52312224	-0.08811711	0.38264424	-0.64450537	-0.30943631	-0.36904819	-0.73607344	-0.27562433	-0.32124638
3379	33.78000000	0.92497151	0.24156229	0.06600477	-0.67429149	0.21767708	-0.67990445	-0.62664743	-0.54865234	0.04643299	-0.86579498	-0.03763432	-0.14907945	-0.57647034	0.59688354	0.20372318	-0.51844589	-0.08407144	0.39085746	-0.62724428	-0.30902278	-0.38160237	-0.74044795	-0.27908080	-0.31959731
3380	33.79000000	0.92073980	0.24465420	0.07400524	-0.67365562	0.21519773	-0.68347114	-0.64104623	-0.53597858	0.03291530	-0.86761905	-0.03810482	-0.14271056	-0.57691368	0.60866376	0.19914770	-0.51607909	-0.07891826	0.39522722	-0.61298035	-0.30886126	-0.39387051	-0.74397386	-0.27548664	-0.32496093
3381	33.80000000	0.92340228	0.24941344	0.07568210	-0.67086966	0.20933860	-0.68114463	-0.65250588	-0.51853202	0.01986870	-0.86606792	-0.04080165	-0.14126581	-0.57067108	0.61303854	0.19909775	-0.51312362	-0.07738817	0.39549712	-0.61146102	-0.30221254	-0.40824179	-0.73659460	-0.27320098	-0.32282097
3382	33.81000000	0.92059691	0.23955516	0.07588500	-0.67139441	0.20911002	-0.67798794	-0.66282010	-0.50855744	0.00430200	-0.86189131	-0.04282453	-0.15183624	-0.56590265	0.62034538	0.19556692	-0.51127067	-0.07588478	0.39184558	-0.60564125	-0.29440305	-0.42256516	-0.74138832	-0.27992035	-0.32475830
3383	33.82000000	0.92589182	0.24304643	0.07370233	-0.66495152	0.21054044	-0.68159294	-0.67709596	-0.49598726	-0.00529287	-0.86106222	-0.03648105	-0.14880649	-0.56261455	0.62745594	0.19459572	-0.50659779	-0.06675076	0.39266095	-0.60453267	-0.28623993	-0.42747275	-0.75044549	-0.27066875	-0.32236571
3384	33.83000000	0.92520508	0.24615045	0.08084167	-0.66393834	0.20737177	-0.68190600	-0.68390794	-0.48639831	-0.00849390	-0.86467829	-0.04601700	-0.14537046	-0.55794894	0.62782401	0.19609952	-0.50532883	-0.06652373	0.40555929	-0.60250897	-0.28340951	-0.43517990	-0.75060072	-0.26778431	-0.32305641
3385	33.84000000	0.92205446	0.23709607	0.08098116	-0.66878643	0.20280201	-0.68062565	-0.68786138	-0.47836799	-0.00792154	-0.86495372	-0.05112707	-0.14472288	-0.55532012	0.63829707	0.19223267	-0.50392175	-0.06367587	0.39588640	-0.60002531	-0.27454130	-0.44200881	-0.75496759	-0.26746593	-0.32180738
3386	33.85000000	0.92209520	0.24047295	0.07998822	-0.67430426	0.19962642	-0.68206760	-0.68885288	-0.47382260	-0.01017717	-0.85823132	-0.04812896	-0.14283842	-0.54601780	0.64366348	0.19187734	-0.50414746	-0.06414527	0.40053959	-0.59618586	-0.26599945	-0.44412285	-0.75826704	-0.26349037	-0.31630332
3387	33.86000000	0.92385484	0.24019855	0.08534285	-0.66913176	0.20042210	-0.67942322	-0.68649497	-0.47470898	-0.01161649	-0.86095846	-0.05019072	-0.14300743	-0.54272104	0.65412090	0.18999370	-0.49638550	-0.05756113	0.40075189	-0.59550580	-0.25943176	-0.44827904	-0.76469321	-0.26618478	-0.31396282
